<svg xmlns="http://www.w3.org/2000/svg" width="1024" height="1024" viewBox="0 0 1024 1024">
  <rect width="1024" height="1024" fill="#08131b"/>
  <rect x="24" y="24" width="976" height="88" rx="16" fill="#06101a" stroke="#1d8eaa" stroke-width="4"/>
  <text x="54" y="66" font-family="sans-serif" font-size="34" font-weight="700" fill="#dce6e2">FPS MILITARY FLASHLIGHT</text>
  <text x="56" y="96" font-family="sans-serif" font-size="20" fill="#e5a23d">Chunky six-sided silhouette // first-person prop</text>
  <ellipse cx="520" cy="850" rx="290" ry="58" fill="#02070b"/>
  <polygon points="258,558 648,468 730,568 326,684" fill="#303535" stroke="#7a817c" stroke-width="6"/>
  <polygon points="326,684 730,568 691,654 306,752" fill="#191d1d" stroke="#545b57" stroke-width="5"/>
  <polygon points="626,430 782,398 874,508 730,568 648,468" fill="#3f4441" stroke="#92988e" stroke-width="6"/>
  <polygon points="782,398 888,458 874,508 812,454" fill="#777b6d" stroke="#a8a993" stroke-width="4"/>
  <ellipse cx="847" cy="468" rx="45" ry="39" fill="#c5ddd6" stroke="#31515a" stroke-width="8"/>
  <g stroke="#0d1111" stroke-width="13">
    <line x1="334" y1="550" x2="354" y2="676"/>
    <line x1="376" y1="540" x2="396" y2="665"/>
    <line x1="418" y1="530" x2="438" y2="655"/>
    <line x1="460" y1="520" x2="480" y2="645"/>
    <line x1="502" y1="510" x2="522" y2="635"/>
    <line x1="544" y1="500" x2="564" y2="625"/>
  </g>
  <polygon points="286,642 441,620 504,758 370,832 244,760" fill="#705036" stroke="#a47a55" stroke-width="5"/>
  <text x="292" y="870" font-family="sans-serif" font-size="20" fill="#7bc1d1">0.34 m · 4k faces · pivot at grip · no collision</text>
</svg>
