<svg xmlns="http://www.w3.org/2000/svg" width="1024" height="1024" viewBox="0 0 1024 1024">
  <rect width="1024" height="1024" fill="#08131b"/>
  <rect x="24" y="24" width="976" height="88" rx="16" fill="#06101a" stroke="#1d8eaa" stroke-width="4"/>
  <text x="54" y="66" font-family="sans-serif" font-size="34" font-weight="700" fill="#dce6e2">SENTINEL VESTIBULE CONSOLE</text>
  <text x="56" y="96" font-family="sans-serif" font-size="20" fill="#e5a23d">Analog CRT command desk // isolated three-quarter view</text>
  <ellipse cx="520" cy="858" rx="330" ry="62" fill="#02070b"/>
  <polygon points="238,414 674,330 804,704 296,798" fill="#303739" stroke="#748080" stroke-width="6"/>
  <polygon points="278,438 644,372 724,638 330,700" fill="#141d1f" stroke="#506062" stroke-width="4"/>
  <g stroke="#2f8d98" stroke-width="4">
    <polygon points="324,426 458,405 471,515 333,536" fill="#071f23"/>
    <polygon points="486,394 636,370 652,490 497,515" fill="#071f23"/>
    <polygon points="656,408 752,394 767,494 668,510" fill="#071f23"/>
  </g>
  <g stroke-linecap="round">
    <line x1="348" y1="452" x2="438" y2="438" stroke="#2fd0b8" stroke-width="8"/>
    <line x1="350" y1="478" x2="420" y2="468" stroke="#15766f" stroke-width="6"/>
    <line x1="510" y1="426" x2="617" y2="410" stroke="#2fd0b8" stroke-width="8"/>
    <line x1="513" y1="456" x2="590" y2="445" stroke="#15766f" stroke-width="6"/>
    <line x1="679" y1="438" x2="739" y2="429" stroke="#2fd0b8" stroke-width="7"/>
  </g>
  <g fill="#4f5756" stroke="#818b86" stroke-width="2">
    <rect x="350" y="624" width="28" height="20" transform="skewY(-5)"/>
    <rect x="392" y="618" width="28" height="20" transform="skewY(-5)"/>
    <rect x="434" y="612" width="28" height="20" transform="skewY(-5)"/>
    <rect x="476" y="606" width="28" height="20" transform="skewY(-5)"/>
    <rect x="518" y="600" width="28" height="20" transform="skewY(-5)"/>
    <rect x="560" y="594" width="28" height="20" transform="skewY(-5)"/>
    <rect x="602" y="588" width="28" height="20" transform="skewY(-5)"/>
  </g>
  <circle cx="356" cy="736" r="11" fill="#e44623"/>
  <circle cx="414" cy="727" r="11" fill="#29b7a2"/>
  <circle cx="472" cy="718" r="11" fill="#29b7a2"/>
  <circle cx="530" cy="709" r="11" fill="#29b7a2"/>
  <circle cx="588" cy="700" r="11" fill="#29b7a2"/>
  <circle cx="646" cy="691" r="11" fill="#e44623"/>
  <text x="262" y="850" font-family="sans-serif" font-size="20" fill="#7bc1d1">1.35 m · 7k faces · simple collision · matte steel</text>
</svg>
